<?xml version="1.0" encoding="UTF-8" standalone="no"?>
<svg width="52px" height="52px" viewBox="0 0 52 52" version="1.1" xmlns="http://www.w3.org/2000/svg" xmlns:xlink="http://www.w3.org/1999/xlink">
    <!-- Generator: Sketch 48.2 (47327) - http://www.bohemiancoding.com/sketch -->
    <title>Group 43</title>
    <desc>Created with Sketch.</desc>
    <defs>
        <circle id="path-1" cx="25" cy="25" r="25"></circle>
        <polygon id="path-3" points="32 26.4 26.4 26.4 26.4 32 23.6 32 23.6 26.4 18 26.4 18 23.6 23.6 23.6 23.6 18 26.4 18 26.4 23.6 32 23.6"></polygon>
    </defs>
    <g id="Page-1" stroke="none" stroke-width="1" fill="none" fill-rule="evenodd">
        <g id="Group-43" transform="translate(1.000000, 1.000000)">
            <g id="manipal-copy">
                <g id="Group-3">
                    <g id="Group-5">
                        <mask id="mask-2" fill="white">
                            <use xlink:href="#path-1"></use>
                        </mask>
                        <g id="Oval">
                            <use fill="#B1B1C6" fill-rule="evenodd" xlink:href="#path-1"></use>
                            <circle stroke-opacity="0.2" stroke="#B1B1C6" stroke-width="1" cx="25" cy="25" r="25.5"></circle>
                        </g>
                    </g>
                </g>
            </g>
            <g id="frame-landscape" opacity="0.300000012" transform="translate(10.000000, 14.000000)" fill="#FFFFFF" fill-rule="nonzero">
                <path d="M28.5405286,0 L0.459471449,0 C0.205751315,0 0,0.206790991 0,0.461999534 L0,22.5380005 C0,22.793209 0.205751315,23 0.459471449,23 L28.5405286,23 C28.7944325,23 29,22.793209 29,22.5380005 L29,0.461999534 C29,0.206790991 28.7944325,0 28.5405286,0 Z M26.2431713,19.3166625 L19.9239686,12.7364956 C19.8541289,12.6639616 19.7399043,12.6592492 19.664551,12.725962 L15.2816528,16.6048177 L9.67959313,9.66918825 C9.64320299,9.62391229 9.5899962,9.59804032 9.52980544,9.59933392 C9.47182014,9.60053512 9.4176944,9.62853229 9.38305026,9.67528664 L2.7568287,18.6154396 L2.7568287,2.7719972 L26.2431713,2.7719972 L26.2431713,19.3166625 Z" id="Shape"></path>
                <path d="M18.9999592,8 C20.103818,8 21,7.1046796 21,6.00008153 C21,4.89580955 20.103818,4 18.9999592,4 C17.8952035,4 17,4.89580955 17,6.00008153 C17,7.10459808 17.8952851,8 18.9999592,8 Z" id="Shape"></path>
            </g>
            <g id="Path-Copy-7">
                <use fill="#FFFFFF" fill-rule="evenodd" xlink:href="#path-3"></use>
                <path stroke="#B1B1C6" stroke-width="0.5" d="M31.75,26.15 L31.75,23.85 L26.15,23.85 L26.15,18.25 L23.85,18.25 L23.85,23.85 L18.25,23.85 L18.25,26.15 L23.85,26.15 L23.85,31.75 L26.15,31.75 L26.15,26.15 L31.75,26.15 Z"></path>
            </g>
        </g>
    </g>
</svg>